<?xml version="1.0" encoding="utf-8"?>
<!-- Generator: Adobe Illustrator 14.0.0, SVG Export Plug-In . SVG Version: 6.00 Build 43363)  -->
<!DOCTYPE svg PUBLIC "-//W3C//DTD SVG 1.1//EN" "http://www.w3.org/Graphics/SVG/1.1/DTD/svg11.dtd">
<svg version="1.1" id="Ebene_1" xmlns="http://www.w3.org/2000/svg" xmlns:xlink="http://www.w3.org/1999/xlink" x="0px" y="0px"
	 width="512px" height="512px" viewBox="0 0 512 512" enable-background="new 0 0 512 512" xml:space="preserve">
<g>
	<path fill="#FFFFFF" fill-opacity="0.2" d="M197.562,199.502c0,79.818-39.967,144.513-89.283,144.513
		C58.975,344.015,19,279.32,19,199.502C19,119.701,58.975,54.99,108.28,54.99C157.595,54.99,197.562,119.695,197.562,199.502z"/>
	<path fill="#FFFFFF" d="M496.151,434.037L365.794,303.544c18.902-30.192,29.851-65.859,29.851-104.042
		C395.645,91.15,307.573,3,199.319,3C91.069,3,3,91.15,3,199.502c0,108.355,88.068,196.51,196.319,196.51
		c38.402,0,74.258-11.104,104.55-30.257l130.25,130.384c8.576,8.577,19.795,12.861,31.026,12.861
		c11.219,0,22.45-4.284,31.005-12.861C513.283,478.994,513.283,451.192,496.151,434.037z M35,199.502
		C35,108.795,108.714,35,199.319,35c90.61,0,164.326,73.795,164.326,164.502c0,90.711-73.716,164.51-164.326,164.51
		C108.714,364.012,35,290.213,35,199.502z"/>
</g>
</svg>
