<?xml version="1.0" encoding="utf-8"?>
<!-- Generator: Adobe Illustrator 14.0.0, SVG Export Plug-In . SVG Version: 6.00 Build 43363)  -->
<!DOCTYPE svg PUBLIC "-//W3C//DTD SVG 1.1//EN" "http://www.w3.org/Graphics/SVG/1.1/DTD/svg11.dtd">
<svg version="1.1" id="Ebene_1" xmlns="http://www.w3.org/2000/svg" x="0px" y="0px"
     width="512px" height="512px" viewBox="0 0 512 512" enable-background="new 0 0 512 512" xml:space="preserve">
<path opacity="0.5" fill="#FFFFFF" d="M284,176v308c0,15.464-12.536,28-28,28l0,0c-15.464,0-28-12.536-28-28V176H284z"/>
<path opacity="0.5" fill="#FFFFFF" d="M228,60V29c0-15.464,12.536-28,28-28s28,12.536,28,28v31H228z"/>
<path opacity="0.5" fill="#FFFFFF" d="M471,349v135c0,15.464-12.536,28-28,28l0,0c-15.464,0-28-12.536-28-28V349H471z"/>
<path opacity="0.5" fill="#FFFFFF" d="M415,233V29c0-15.464,12.536-28,28-28s28,12.536,28,28v204H415z"/>
<path opacity="0.5" fill="#FFFFFF" d="M97,411v73c0,15.464-12.536,28-28,28l0,0c-15.464,0-28-12.536-28-28v-73H97z"/>
<path opacity="0.5" fill="#FFFFFF" d="M41,295V29C41,13.536,53.536,1,69,1s28,12.536,28,28v266H41z"/>
<path opacity="0.5" fill="#FFFFFF" d="M110,381H28c-15.464,0-28-12.536-28-28s12.536-28,28-28h82c15.464,0,28,12.536,28,28
	S125.464,381,110,381L110,381z"/>
<path opacity="0.5" fill="#FFFFFF" d="M297,146h-82c-15.464,0-28-12.536-28-28s12.536-28,28-28h82c15.464,0,28,12.536,28,28
	S312.464,146,297,146L297,146z"/>
<path opacity="0.5" fill="#FFFFFF" d="M484,319h-82c-15.464,0-28-12.536-28-28s12.536-28,28-28h82c15.464,0,28,12.536,28,28
	S499.464,319,484,319L484,319z"/>
</svg>
