<?xml version="1.0" encoding="utf-8"?>
<!-- Generator: Adobe Illustrator 14.0.0, SVG Export Plug-In . SVG Version: 6.00 Build 43363)  -->
<!DOCTYPE svg PUBLIC "-//W3C//DTD SVG 1.1//EN" "http://www.w3.org/Graphics/SVG/1.1/DTD/svg11.dtd">
<svg version="1.1" id="Ebene_1" xmlns="http://www.w3.org/2000/svg" xmlns:xlink="http://www.w3.org/1999/xlink" x="0px" y="0px"
	 width="512px" height="512px" viewBox="0 0 512 512" enable-background="new 0 0 512 512" xml:space="preserve">
<polygon fill="#FFFFFF" fill-opacity="0.2" points="188.164,204.182 234.993,274.486 185.84,321.538 99.431,285.311 99.431,210.913 
	121.525,152.201 137.431,161.724 149.25,113.549 166.461,72.917 238.659,143.275 "/>
<path fill="#FFFFFF" fill-opacity="0.2" d="M256,453.625c-143.066,0-180.5-114.252-180.5-166.798
	c58.418-10.844,110.848,36.654,110.848,36.654c20.973-29.92,69.652-66.57,69.652-66.57s48.682,36.65,69.653,66.57
	c0,0,52.429-47.498,110.847-36.654C436.5,339.375,399.069,453.625,256,453.625"/>
<path fill="#FFFFFF" d="M438.448,276.339c-4.26-0.789-8.622-1.297-13.024-1.563c0.384-81.263-26.569-126.201-27.767-128.153
	l-5.339-8.704l-8.929,4.954c-1.106,0.613-2.202,1.231-3.29,1.853c-11.696-53.426-26.902-76.687-27.601-77.731l-6.753-10.118
	l-9.148,8.019c-2.681,2.349-5.438,4.821-8.238,7.369c-27.133-49.581-65.966-68.693-67.739-69.545L256,0.5l-4.619,2.22
	c-1.772,0.852-40.608,19.964-67.738,69.547c-2.804-2.553-5.561-5.023-8.239-7.371l-9.149-8.02l-6.754,10.12
	c-0.696,1.045-15.902,24.307-27.598,77.728c-1.087-0.622-2.185-1.24-3.29-1.854l-8.93-4.954l-5.339,8.705
	c-1.196,1.951-28.147,46.896-27.766,128.156c-4.402,0.267-8.765,0.773-13.025,1.563l-8.72,1.617v8.869
	c0,28.791,10.203,72.714,38.837,109.642c23.993,30.939,69.896,67.824,152.33,67.824c82.435,0,128.337-36.885,152.33-67.824
	c28.634-36.929,38.837-80.851,38.837-109.642v-8.869L438.448,276.339z M384.11,167.132c7.24,16.315,20.328,53.514,19.969,108.359
	c-34.218,4.313-62.746,22.483-76.605,32.838c-10.954-13.27-25.347-26.822-37.815-37.686
	C302.518,243.372,329.977,200.156,384.11,167.132z M239.204,256.528c-7.316-14.604-18.177-32.574-33.867-51.092
	c13.256-21.232,38.491-49.979,51.227-64.033c12.584,13.887,37.366,42.115,50.745,63.28c-16.036,18.782-27.096,37.045-34.511,51.846
	c-5.877-4.731-9.829-7.723-10.382-8.139l-6.416-4.83l-6.416,4.83C249.032,248.807,245.081,251.796,239.204,256.528z M340.575,90
	c5.384,11.768,13.545,33.304,20.264,66.771c-14.824,10.111-27.598,20.9-38.578,31.799c-10.101-15.031-24.05-32.023-35.738-45.54
	c12.275-12.606,29.231-29.702,45.605-45.16c0.238-0.204,0.463-0.419,0.682-0.641C335.42,94.767,338.018,92.348,340.575,90z
	 M256.027,24.569c10.638,6.49,37.29,25.548,56.173,62.803c-13.833,13.233-27.88,27.349-39.866,39.646
	c-4.54-5.001-7.549-8.201-8.011-8.69l-7.76-8.229l-7.761,8.229c-0.479,0.509-3.71,3.943-8.552,9.287
	c-11.122-11.414-25.762-26.181-40.448-40.234C218.604,50.336,245.4,31.106,256.027,24.569z M171.464,90.033
	c19.018,17.462,40.089,38.677,54.613,53.606c-11.756,13.618-25.679,30.631-35.663,45.603c-11.13-11.127-24.121-22.15-39.249-32.472
	C157.844,123.56,166.06,101.896,171.464,90.033z M127.892,167.128c1.886,1.15,3.737,2.313,5.561,3.488
	c0.012,0.008,0.023,0.016,0.035,0.023c50.441,32.525,76.446,73.682,88.859,100.003c-12.471,10.862-26.861,24.417-37.816,37.687
	c-13.861-10.354-42.389-28.523-76.606-32.838C107.566,220.632,120.659,183.429,127.892,167.128z M256,442.959
	c-130.258,0-165.401-98.517-169.424-146.825c2.198-0.166,4.416-0.248,6.64-0.248c46.023,0,85.586,35.157,85.97,35.503l8.958,8.115
	l6.938-9.897c11.343-16.182,31.709-34.822,47.086-47.832c0.063-0.052,0.125-0.104,0.188-0.158
	c5.367-4.535,10.12-8.384,13.647-11.185c13.646,10.827,45.54,37.235,60.917,59.175l6.938,9.897l8.958-8.115
	c0.392-0.355,39.726-35.503,85.97-35.503c2.225,0,4.441,0.083,6.64,0.248C421.404,344.442,386.258,442.959,256,442.959z"/>
<path fill="#FFFFFF" stroke="#FFFFFF" stroke-linejoin="round" d="M287.32,512h-62.634v-59.207c0-5.892,4.774-10.668,10.667-10.668
	c5.892,0,10.667,4.776,10.667,10.668v37.872h19.968v-37.872c0-5.892,4.774-10.668,10.667-10.668c5.892,0,10.667,4.776,10.667,10.668
	V512H287.32z"/>
</svg>
