<?xml version="1.0" encoding="utf-8"?>
<!-- Generator: Adobe Illustrator 14.0.0, SVG Export Plug-In . SVG Version: 6.00 Build 43363)  -->
<!DOCTYPE svg PUBLIC "-//W3C//DTD SVG 1.1//EN" "http://www.w3.org/Graphics/SVG/1.1/DTD/svg11.dtd">
<svg version="1.1" id="Ebene_1" xmlns="http://www.w3.org/2000/svg" x="0px" y="0px"
     width="512px" height="512px" viewBox="0 0 512 512" enable-background="new 0 0 512 512" xml:space="preserve">
<polygon opacity="0.2" fill="#FFFFFF" points="512,118.948 16.5,118.948 16.5,96.052 512,96.052 512,118.948 "/>
<polygon fill="#FFFFFF" points="333.878,149.151 333.878,181.151 396.787,181.151 282.568,295.369 203.458,216.259 74.686,345.031
	97.314,367.658 203.458,261.514 282.568,340.623 419.414,203.778 419.414,266.687 451.414,266.687 451.414,149.151 "/>
<polygon fill="#FFFFFF" points="512,454 0.5,454 0.5,58 32.5,58 32.5,422 512,422 512,454 "/>
<line fill="none" stroke="#FFFFFF" stroke-width="22.8963" stroke-opacity="0.2" x1="16.5" y1="438" x2="512" y2="438"/>
<g>
	<polygon opacity="0.2" fill="#FFFFFF" points="335.091,316.385 312.194,339.281 512,339.281 512,316.385 	"/>
	<polygon opacity="0.2" fill="#FFFFFF" points="252.942,339.281 230.045,316.385 176.873,316.385 153.976,339.281 	"/>
	<polygon opacity="0.2" fill="#FFFFFF" points="75.049,316.385 16.5,316.385 16.5,339.281 52.153,339.281 	"/>
</g>
<g>
	<polygon opacity="0.2" fill="#FFFFFF" points="221.701,206.218 244.597,229.115 320.539,229.115 343.435,206.218 	"/>
	<rect x="471.414" y="206.218" opacity="0.2" fill="#FFFFFF" width="40.586" height="22.896"/>
	<polygon opacity="0.2" fill="#FFFFFF" points="185.216,206.218 16.5,206.218 16.5,229.115 162.32,229.115 	"/>
</g>
</svg>
