<?xml version="1.0" encoding="utf-8"?>
<!-- Generator: Adobe Illustrator 14.0.0, SVG Export Plug-In . SVG Version: 6.00 Build 43363)  -->
<!DOCTYPE svg PUBLIC "-//W3C//DTD SVG 1.1//EN" "http://www.w3.org/Graphics/SVG/1.1/DTD/svg11.dtd">
<svg version="1.1" id="Ebene_1" xmlns="http://www.w3.org/2000/svg" x="0px" y="0px"
     width="512px" height="512px" viewBox="0 0 512 512" enable-background="new 0 0 512 512" xml:space="preserve">
<polygon fill="#000000" fill-opacity="0.2" points="44.191,248.711 73.692,335.702 73.692,496.146 161.666,496.146 161.666,122.368
	37.172,122.368 "/>
<path fill="#000000" d="M238.635,409.533v75.618c0,2.561-0.24,3.971-0.42,4.671c-0.479,0.087-1.28,0.178-2.533,0.178H87.644
	c-1.252,0-2.053-0.091-2.532-0.178c-0.181-0.7-0.42-2.11-0.42-4.671V335.702c0-0.521-0.037-1.04-0.11-1.555
	c-0.267-1.872-2.672-13.934-23.827-67.743c-12.528-31.864-15.025-89.778-10.785-138.049h223.391
	c1.213,13.802,1.871,28.392,1.905,42.937c7.138-1.527,14.492-2.46,22.011-2.748c-0.036-6.513-0.188-13.131-0.468-19.826
	c-1.045-25.062-5.559-85.975-24.844-110.255c-2.087-2.627-5.258-4.159-8.613-4.159H249.78c-6.693-4.179-16.073-6.957-26.603-7.455
	C219.998,11.731,197.291,0,169.709,0c-26.433,0-48.373,10.775-52.965,24.975c-5.208-1.76-11.279-2.788-17.787-2.788
	c-14.479,0-26.895,5.002-32.147,12.118h-6.834c-3.355,0-6.527,1.532-8.614,4.159c-19.281,24.28-23.794,85.193-24.84,110.254
	c-2.143,51.369,3,98.373,13.759,125.735c17.726,45.087,21.657,59.294,22.412,62.402v148.295c0,22.19,13.569,26.849,24.952,26.849
	h148.038c11.383,0,24.954-4.658,24.954-26.849v-65.689C252.951,416.834,245.593,413.497,238.635,409.533z M65.847,56.305h191.633
	c6.638,11.841,11.768,34.419,14.777,61.05H51.072C54.082,90.724,59.211,68.146,65.847,56.305z"/>
<path fill="#000000" fill-opacity="0.2" enable-background="new    " d="M217.312,297.394c0,35.263,21.593,65.57,52.249,78.41
	c18.644-13.255,31.668-43.365,31.668-78.41c0-35.036-13.02-65.142-31.657-78.402C238.911,231.827,217.312,262.132,217.312,297.394z"
	/>
<path fill="#000000" d="M478.338,436.37l-76.225-76.225c11.47-18.188,18.118-39.706,18.118-62.752
	c0-65.041-52.917-117.955-117.96-117.955c-65.043,0-117.959,52.915-117.959,117.955c0,65.048,52.916,117.969,117.959,117.969
	c23.198,0,44.851-6.735,63.112-18.349l76.157,76.157c5.089,5.08,11.739,7.614,18.403,7.614c6.655,0,13.31-2.534,18.394-7.614
	C488.497,463.012,488.497,446.532,478.338,436.37z M206.312,297.394c0-52.91,43.047-95.955,95.959-95.955
	c52.912,0,95.96,43.045,95.96,95.955c0,52.917-43.048,95.969-95.96,95.969C249.359,393.362,206.312,350.311,206.312,297.394z"/>
</svg>
