<?xml version="1.0" encoding="utf-8"?>
<!-- Generator: Adobe Illustrator 14.0.0, SVG Export Plug-In . SVG Version: 6.00 Build 43363)  -->
<!DOCTYPE svg PUBLIC "-//W3C//DTD SVG 1.1//EN" "http://www.w3.org/Graphics/SVG/1.1/DTD/svg11.dtd">
<svg version="1.1" id="Ebene_1" xmlns="http://www.w3.org/2000/svg" x="0px" y="0px"
     width="512px" height="512px" viewBox="0 0 512 512" enable-background="new 0 0 512 512" xml:space="preserve">
<linearGradient id="SVGID_1_" gradientUnits="userSpaceOnUse" x1="255.9998" y1="10" x2="255.9997" y2="502.0005">
	<stop  offset="0" style="stop-color:#5A5755"/>
	<stop  offset="1" style="stop-color:#312D2A"/>
</linearGradient>
<path fill="url(#SVGID_1_)" stroke="#312D2A" stroke-width="19.2187" d="M502,425.125C502,467.589,467.59,502,425.125,502H86.875
	C44.421,502,10,467.589,10,425.125V86.875C10,44.421,44.421,10,86.875,10h338.25C467.59,10,502,44.421,502,86.875V425.125z"/>
<polygon fill="#FFFFFF" fill-opacity="0.2" points="77.31,249.837 102.199,323.253 102.199,458.591 176.414,458.591
	176.414,143.261 71.384,143.261 "/>
<path fill="#FFFFFF" d="M241.339,385.516v63.819c0,2.14-0.205,3.339-0.35,3.924c-0.409,0.063-1.07,0.152-2.135,0.152H113.97
	c-1.06,0-1.729-0.09-2.137-0.152c-0.154-0.585-0.352-1.784-0.352-3.924V323.253c0-0.432-0.035-0.881-0.101-1.326
	c-0.223-1.59-2.25-11.757-20.102-57.138c-10.565-26.883-12.675-75.755-9.098-116.482h188.441c1.072,11.653,1.59,23.96,1.624,36.223
	c6.015-1.281,12.244-2.074,18.569-2.316c-0.035-5.493-0.149-11.07-0.397-16.712c-0.878-21.157-4.677-72.545-20.979-93.028
	c-1.738-2.217-4.418-3.505-7.212-3.505h-11.465c-5.661-3.528-13.579-5.869-22.458-6.293c-2.687-12.752-21.84-22.646-45.111-22.646
	c-22.291,0-40.8,9.089-44.678,21.067c-4.393-1.488-9.517-2.35-15.006-2.35c-12.211,0-22.689,4.219-27.12,10.222H90.63
	c-2.834,0-5.507,1.289-7.272,3.504C67.095,92.958,63.285,144.346,62.4,165.502c-1.809,43.328,2.533,82.993,11.606,106.071
	c14.955,38.041,18.275,50.024,18.911,52.642v125.119c0,18.705,11.445,22.636,21.054,22.636h124.883
	c9.616,0,21.08-3.931,21.08-22.636v-55.436C253.439,391.692,247.209,388.854,241.339,385.516z M95.579,87.528h161.689
	c5.585,9.989,9.897,29.04,12.46,51.5H83.112C85.656,116.568,89.978,97.518,95.579,87.528z"/>
<path fill="#FFFFFF" fill-opacity="0.2" d="M223.352,290.934c0,29.715,18.222,55.315,44.102,66.121
	c15.696-11.15,26.683-36.555,26.683-66.121c0-29.56-10.982-54.96-26.672-66.148C241.58,235.619,223.352,261.149,223.352,290.934z"/>
<path fill="#FFFFFF" d="M443.575,408.162l-64.29-64.311c9.647-15.312,15.246-33.479,15.246-52.92
	c0-54.893-44.634-99.52-99.494-99.52c-54.865,0-99.524,44.628-99.524,99.52c0,54.866,44.659,99.499,99.524,99.499
	c19.547,0,37.828-5.681,53.244-15.469l64.254,64.255c4.296,4.271,9.913,6.425,15.523,6.425c5.603,0,11.204-2.154,15.516-6.425
	C452.137,430.637,452.137,416.755,443.575,408.162z M214.072,290.934c0-44.659,36.334-80.962,80.965-80.962
	c44.626,0,80.933,36.303,80.933,80.962c0,44.629-36.307,80.94-80.933,80.94C250.406,371.872,214.072,335.563,214.072,290.934z"/>
</svg>
