<?xml version="1.0" encoding="utf-8"?>
<!-- Generator: Adobe Illustrator 14.0.0, SVG Export Plug-In . SVG Version: 6.00 Build 43363)  -->
<!DOCTYPE svg PUBLIC "-//W3C//DTD SVG 1.1//EN" "http://www.w3.org/Graphics/SVG/1.1/DTD/svg11.dtd">
<svg version="1.1" id="Ebene_1" xmlns="http://www.w3.org/2000/svg" x="0px" y="0px"
     width="512px" height="512px" viewBox="0 0 512 512" enable-background="new 0 0 512 512" xml:space="preserve">
<path fill="#46403C" d="M512,462c0,27.614-22.386,50-50,50H50c-27.614,0-50-22.386-50-50V50C0,22.386,22.386,0,50,0h412
	c27.614,0,50,22.386,50,50V462z"/>
<path fill="none" stroke="#FFFFFF" stroke-width="16" stroke-linecap="round" stroke-linejoin="round" d="M242.094,468
	c8.406,0,11.809-3.402,11.809-13.409c0-9.206,0-126.485,0-126.485s1.2-8.405,19.613-55.237
	c18.412-46.83,13.608-163.308-8.006-190.527H93.394c-21.615,27.219-26.418,143.697-8.005,190.527
	c18.412,46.832,19.613,55.237,19.613,55.237s0,117.279,0,126.485c0,10.007,3.403,13.409,11.808,13.409H242.094z"/>
<polygon fill="#FFFFFF" fill-opacity="0.2" points="80.033,254.489 105.001,328.105 105.001,463.891 179.452,463.891
	179.452,147.56 74.092,147.56 "/>
<line fill="none" stroke="#FFFFFF" stroke-width="8" x1="74.092" y1="147.973" x2="284.904" y2="147.973"/>
<path fill="#FFFFFF" d="M231.512,66.724C228.821,53.929,209.603,44,186.259,44c-22.37,0-40.938,9.119-44.822,21.136
	c-4.411-1.488-9.545-2.357-15.054-2.357c-16.278,0-29.473,7.467-29.473,16.673l165.977,6.58
	C262.887,75.877,249.083,67.557,231.512,66.724z"/>
<g>
	<path fill="#46403C" d="M389.061,295.531c0,49.996-40.531,90.533-90.533,90.533c-49.994,0-90.527-40.537-90.527-90.533
		S248.533,205,298.527,205C348.529,205,389.061,245.535,389.061,295.531z"/>
	<path fill="#FFFFFF" fill-opacity="0.2" enable-background="new    " d="M297.646,295.531c0,40.031-20.064,72.475-44.822,72.475
		c-24.755,0-44.824-32.443-44.824-72.475c0-40.026,20.069-72.479,44.824-72.479C277.581,223.052,297.646,255.501,297.646,295.531z"
		/>
	<g>
		<path fill="none" stroke="#46403C" stroke-width="38.4" stroke-linecap="round" stroke-linejoin="round" d="M389.061,295.531
			c0,49.996-40.531,90.533-90.533,90.533c-49.994,0-90.527-40.537-90.527-90.533S248.533,205,298.527,205
			C348.529,205,389.061,245.535,389.061,295.531z"/>
		<path fill="none" stroke="#FFFFFF" stroke-width="16" stroke-linecap="round" stroke-linejoin="round" d="M389.061,295.531
			c0,49.996-40.531,90.533-90.533,90.533c-49.994,0-90.527-40.537-90.527-90.533S248.533,205,298.527,205
			C348.529,205,389.061,245.535,389.061,295.531z"/>
	</g>
	<path fill="#FFFFFF" d="M447.55,413.16l-73.331-73.333l-31.146,31.144l73.336,73.333c4.302,4.304,9.936,6.448,15.57,6.448
		c5.636,0,11.271-2.145,15.571-6.448C456.15,435.703,456.15,421.761,447.55,413.16z"/>
</g>
</svg>
