<svg version="1" xmlns="http://www.w3.org/2000/svg" width="933.333" height="933.333" viewBox="0 0 700.000000 700.000000"><path d="M97 2.6C61.8 9 29.5 33.3 13.1 65.8 8.5 74.9 3.3 91.2 2 100.5c-.8 5.8-1 77.3-.8 254.5l.3 246.5 2.2 7.5c6.8 23.8 15.8 39.7 31.7 55.6C52.7 682 74.2 693.2 98 697.4c8.7 1.5 29.4 1.7 256 1.4l246.5-.3 9.8-2.7c39.4-10.9 69.3-38.3 82.5-75.8 6.7-19.2 6.3-1 6-274.5l-.3-247-2.2-7.5c-6.4-22.5-15.3-38.6-29.5-53.6-17.1-18-40.7-30.8-64.6-34.9C590 .4 108.7.4 97 2.6zm174.5 54.3c11.4 2.3 19.8 5.8 27.5 11.2 5.9 4.1 11.5 11.1 12.6 15.6.5 1.9 1.3 2.3 4.3 2.3 5 0 17.9 3.3 23 5.9 3.1 1.6 5.9 2.1 12.6 2.1 10.6 0 14.4 1.5 18.5 7.2 15.1 20.8 24.7 67.2 27.5 132.9l.6 14.7-6.3.7c-3.5.3-8.7 1-11.7 1.6-3 .5-6 .9-6.6.9-.8 0-1.4-5.7-1.8-19.3-.4-10.5-1-21.6-1.3-24.5l-.7-5.2-128.6.2-128.6.3-.8 9.5c-1.3 15.2-1.1 67.2.2 82 3.1 34.7 6.7 50.2 19.2 82.9 5 13 11.8 31.7 15.2 41.6l6.2 18 .3 91.3.3 91.2 88.2-.2 88.2-.3.3-46.2.2-46.2 7.8 3.8c4.2 2.1 9.8 4.6 12.5 5.6l4.7 1.8v42.2c0 48.3-.2 49.7-7.6 57.1-7.8 7.8-2.2 7.5-108 7.2l-93.9-.3-4-2.2c-5.5-2.9-10.1-7.9-12.2-13.3-1.7-4.2-1.8-11.1-2.3-97l-.5-92.5-5.2-14.5c-2.8-8-9.2-25.1-14.1-38-12.6-32.9-15.9-46.1-19.9-79.7-2.2-18.9-2.5-85.1-.5-106.8 3.7-38.8 10-68.3 18.7-87.2 6.7-14.6 11.8-19.3 21-19.3 3.9 0 5.4-.6 8.3-3.1 5.2-4.6 13.1-7.9 23.3-9.7 8.8-1.5 18-1.1 28.9 1.4 2.1.4 2.7 0 3.8-2.5 1.9-4.3 9.2-11.4 15.5-15 6.1-3.5 18.3-7.7 25.9-9 9.8-1.6 29.6-1.2 39.3.8zm154.6 206.7c48.8 8.2 90.6 44.1 106.3 91.4 5.4 16.3 6.9 28.1 6.3 47.8-.4 14.4-.9 18.3-3.5 28.2-3.3 12.5-7.4 22.9-13 32.8l-3.5 6.4 45.6 45.6c31.6 31.7 46.2 47.1 47.7 50.2 3.2 6.3 3.8 16.1 1.5 23.1-2.5 7.4-11 15.9-18.4 18.4-7 2.3-16.8 1.7-23.1-1.5-3.1-1.5-18.4-16.1-50-47.6L476.4 513l-10.8 5.5c-40.5 20.5-85.5 20.3-125.5-.5-36.6-19.2-62.8-54.9-70.8-96.5-2.3-12.1-2.3-35.8.1-47.9 11.1-57.2 55-100.5 111.6-110.1 10.9-1.9 33.8-1.8 45.1.1z"/><path d="M127.1 127.9c-5.2 13.5-10.5 37-12.6 55.8l-.7 6.3h254.9l-1.4-10.3c-2.7-20.6-8.2-43.3-13.3-55.3l-1.9-4.4h-222l-3 7.9zM392 287.7c-8.7.9-20.2 3.8-28.5 7-36.4 14.3-62.4 46.2-69.1 84.6-2.3 13.2-1.5 33 1.9 46 9.2 35.1 34.8 63.3 69.1 76.2 13.2 5 19.9 6 38.6 6 16 0 18.4-.3 27.4-2.8 67.3-18.6 101.5-92.3 71.7-154.2-6.1-12.6-11.8-20.7-21.7-30.6-23.3-23.6-56.9-35.7-89.4-32.2z"/></svg>