<?xml version="1.0" encoding="utf-8"?>
<!-- Generator: Adobe Illustrator 14.0.0, SVG Export Plug-In . SVG Version: 6.00 Build 43363)  -->
<!DOCTYPE svg PUBLIC "-//W3C//DTD SVG 1.1 Tiny//EN" "http://www.w3.org/Graphics/SVG/1.1/DTD/svg11-tiny.dtd">
<svg version="1.1" baseProfile="tiny" id="Ebene_1" xmlns="http://www.w3.org/2000/svg" xmlns:xlink="http://www.w3.org/1999/xlink"
	 x="0px" y="0px" width="512px" height="512px" viewBox="-613.188 101.188 512 512" xml:space="preserve">
<polygon fill="#FFFFFF" fill-opacity="0.2" points="-425.024,305.036 -378.195,375.341 -427.348,422.393 -513.758,386.165 
	-513.758,311.768 -491.664,253.055 -475.758,262.578 -463.938,214.404 -446.727,173.771 -374.529,244.13 "/>
<path fill="#FFFFFF" fill-opacity="0.2" d="M-357.188,554.479c-143.067,0-180.5-114.251-180.5-166.798
	c58.418-10.843,110.847,36.655,110.847,36.655c20.973-29.92,69.653-66.57,69.653-66.57s48.681,36.65,69.653,66.57
	c0,0,52.429-47.498,110.847-36.655C-176.688,440.229-214.12,554.479-357.188,554.479"/>
<path fill="#FFFFFF" d="M-174.741,377.194c-4.26-0.79-8.622-1.297-13.024-1.563c0.383-81.263-26.57-126.201-27.767-128.153
	l-5.339-8.704l-8.929,4.954c-1.106,0.613-2.202,1.231-3.29,1.853c-11.696-53.426-26.902-76.687-27.6-77.731l-6.753-10.118
	l-9.149,8.019c-2.68,2.349-5.438,4.821-8.238,7.369c-27.133-49.581-65.966-68.693-67.739-69.545l-4.619-2.22l-4.619,2.22
	c-1.773,0.852-40.609,19.964-67.739,69.547c-2.803-2.553-5.56-5.023-8.239-7.371l-9.149-8.02l-6.754,10.12
	c-0.697,1.045-15.903,24.307-27.598,77.728c-1.087-0.622-2.184-1.24-3.29-1.854l-8.93-4.954l-5.338,8.705
	c-1.197,1.951-28.148,46.896-27.766,128.156c-4.402,0.267-8.765,0.773-13.025,1.563l-8.72,1.618v8.869
	c0,28.791,10.203,72.713,38.837,109.641c23.993,30.94,69.896,67.824,152.33,67.824s128.337-36.884,152.33-67.824
	c28.634-36.928,38.837-80.85,38.837-109.641v-8.869L-174.741,377.194z M-229.079,267.986c7.24,16.316,20.328,53.514,19.969,108.359
	c-34.218,4.314-62.746,22.484-76.606,32.838c-10.954-13.269-25.346-26.822-37.815-37.685
	C-310.671,344.226-283.212,301.011-229.079,267.986z M-373.984,357.383c-7.317-14.604-18.177-32.575-33.867-51.092
	c13.256-21.232,38.491-49.979,51.226-64.033c12.584,13.887,37.366,42.115,50.745,63.28c-16.036,18.782-27.095,37.045-34.51,51.846
	c-5.877-4.732-9.829-7.723-10.382-8.139l-6.416-4.83l-6.416,4.83C-364.156,349.661-368.107,352.65-373.984,357.383z
	 M-272.613,190.854c5.384,11.768,13.545,33.304,20.264,66.771c-14.825,10.112-27.598,20.901-38.578,31.799
	c-10.101-15.031-24.05-32.023-35.739-45.54c12.276-12.606,29.232-29.702,45.606-45.16c0.238-0.204,0.463-0.419,0.681-0.641
	C-277.768,195.621-275.171,193.202-272.613,190.854z M-357.162,125.424c10.638,6.49,37.29,25.548,56.173,62.803
	c-13.833,13.233-27.88,27.349-39.866,39.646c-4.54-5.001-7.549-8.201-8.011-8.69l-7.76-8.229l-7.76,8.229
	c-0.48,0.509-3.71,3.943-8.552,9.287c-11.122-11.414-25.762-26.181-40.448-40.234C-394.585,151.191-367.789,131.961-357.162,125.424
	z M-441.724,190.887c19.017,17.462,40.089,38.677,54.613,53.606c-11.756,13.618-25.679,30.631-35.663,45.602
	c-11.13-11.126-24.121-22.15-39.249-32.471C-455.344,224.414-447.129,202.751-441.724,190.887z M-485.297,267.982
	c1.886,1.151,3.738,2.314,5.561,3.489c0.012,0.008,0.023,0.016,0.035,0.023c50.441,32.526,76.446,73.682,88.859,100.003
	c-12.47,10.862-26.861,24.417-37.816,37.686c-13.861-10.354-42.389-28.523-76.606-32.838
	C-505.623,321.486-492.529,284.283-485.297,267.982z M-357.188,543.813c-130.258,0-165.402-98.516-169.424-146.825
	c2.198-0.165,4.416-0.248,6.64-0.248c46.023,0,85.586,35.157,85.969,35.503l8.958,8.115l6.938-9.897
	c11.343-16.182,31.709-34.822,47.086-47.832c0.063-0.052,0.125-0.104,0.187-0.158c5.367-4.536,10.12-8.384,13.648-11.185
	c13.646,10.827,45.54,37.236,60.917,59.175l6.938,9.897l8.958-8.115c0.392-0.355,39.726-35.503,85.97-35.503
	c2.225,0,4.441,0.083,6.64,0.248C-191.785,445.297-226.93,543.813-357.188,543.813z"/>
<path fill="#FFFFFF" stroke="#FFFFFF" stroke-linejoin="round" d="M-325.869,612.854h-62.634v-59.207
	c0-5.891,4.775-10.667,10.667-10.667s10.667,4.776,10.667,10.667v37.873h19.968v-37.873c0-5.891,4.775-10.667,10.667-10.667
	s10.667,4.776,10.667,10.667V612.854L-325.869,612.854z"/>
</svg>
