<?xml version="1.0" encoding="utf-8"?>
<!-- Generator: Adobe Illustrator 14.0.0, SVG Export Plug-In . SVG Version: 6.00 Build 43363)  -->
<!DOCTYPE svg PUBLIC "-//W3C//DTD SVG 1.1//EN" "http://www.w3.org/Graphics/SVG/1.1/DTD/svg11.dtd">
<svg version="1.1" id="Ebene_1" xmlns="http://www.w3.org/2000/svg" xmlns:xlink="http://www.w3.org/1999/xlink" x="0px" y="0px"
	 width="85.625px" height="114.375px" viewBox="0 0 85.625 114.375" enable-background="new 0 0 85.625 114.375"
	 xml:space="preserve">
<path fill="none" stroke="#FFFFFF" stroke-width="5" stroke-linecap="round" d="M27.481,20.128
	c5.7-12.59,15.394-17.253,15.394-17.253s9.695,4.664,15.396,17.257"/>
<path fill="none" stroke="#FFFFFF" stroke-width="5" stroke-linecap="round" d="M46.439,31.917
	c4.004-4.156,10.637-10.892,15.936-15.542c0,0,3.87,5.806,6.46,19.789"/>
<path fill="none" stroke="#FFFFFF" stroke-width="5" stroke-linecap="round" d="M16.915,36.164c2.59-13.982,6.46-19.789,6.46-19.789
	c5.357,4.701,12.078,11.534,16.067,15.678"/>
<path fill="none" stroke="#FFFFFF" stroke-width="5" stroke-linecap="round" d="M47.471,61.084
	c2.934-6.892,9.855-18.682,24.904-27.042c0,0,6.438,10.509,5.783,29.662"/>
<path fill="none" stroke="#FFFFFF" stroke-width="5" stroke-linecap="round" d="M7.592,63.703
	c-0.654-19.152,5.783-29.662,5.783-29.662c15.051,8.362,21.973,20.155,24.906,27.046"/>
<path fill="#FFFFFF" fill-opacity="0.15" stroke="#FFFFFF" stroke-width="5" stroke-linecap="round" d="M42.875,101.209
	c-31.837,0-40.167-25.459-40.167-37.168c13-2.416,24.667,8.168,24.667,8.168c4.667-6.667,15.5-14.834,15.5-14.834
	s10.833,8.167,15.5,14.834c0,0,11.667-10.584,24.667-8.168C83.042,75.75,74.712,101.209,42.875,101.209"/>
<path fill="none" stroke="#FFFFFF" stroke-width="5" stroke-linecap="round" d="M29,45.625c3.875-6.75,14-17.5,14-17.5
	s10.125,10.75,14,17.5"/>
<polyline fill="none" stroke="#FFFFFF" stroke-width="5" stroke-linecap="round" points="47.471,101.023 47.471,111.84 
	38.28,111.84 38.28,101.023 "/>
<polygon fill="#FFFFFF" fill-opacity="0.15" points="28.205,45.625 38.626,61.291 27.688,71.775 8.459,63.703 8.459,47.125 
	13.375,34.042 16.915,36.164 19.545,25.429 23.375,16.375 39.442,32.053 "/>
</svg>
