<?xml version="1.0" encoding="utf-8"?>
<!-- Generator: Adobe Illustrator 14.0.0, SVG Export Plug-In . SVG Version: 6.00 Build 43363)  -->
<!DOCTYPE svg PUBLIC "-//W3C//DTD SVG 1.1//EN" "http://www.w3.org/Graphics/SVG/1.1/DTD/svg11.dtd">
<svg version="1.1" id="Ebene_1" xmlns="http://www.w3.org/2000/svg" xmlns:xlink="http://www.w3.org/1999/xlink" x="0px" y="0px"
	 width="92.875px" height="117.625px" viewBox="0 0 92.875 117.625" enable-background="new 0 0 92.875 117.625"
	 xml:space="preserve">
<path fill="#FFFFFF" fill-opacity="0.15" d="M55.273,89.666V42.292h1.488v-17.5H22.137v80.25h34.625V89.666H55.273z M41.375,89.666
	h-2.977V42.292h2.977V89.666z"/>
<path fill="#FFFFFF" stroke="#FFFFFF" stroke-width="5" stroke-linecap="round" stroke-linejoin="round" d="M87.948,24.79
	c-0.866-4.141-4.724-7.55-8.523-9.184c-1.597-5.297-6.507-9.158-12.325-9.158c-1.233,0-2.426,0.184-3.557,0.509
	c-2.346-2.464-5.648-4.007-9.318-4.007c-5.834,0-10.754,3.883-12.336,9.203c-0.79-0.151-1.603-0.237-2.437-0.237
	c-7.111,0-12.875,5.764-12.875,12.875"/>
<rect x="22.137" y="24.792" fill="none" stroke="#FFFFFF" stroke-width="3" stroke-linecap="round" width="69.25" height="80.25"/>
<rect x="55.273" y="42.292" fill="none" stroke="#FFFFFF" stroke-width="3" stroke-linecap="round" width="2.977" height="47.375"/>
<path fill="#FFFFFF" fill-opacity="0.3" stroke="#FFFFFF" stroke-width="5" stroke-linecap="round" stroke-linejoin="round" d="
	M89.824,105.041V111c0,2.209-2.791,4-5,4H28.699c-2.209,0-4-1.791-4-4v-5.959H89.824z"/>
<polyline fill="none" stroke="#FFFFFF" stroke-width="5" stroke-linecap="round" stroke-linejoin="round" points="22.137,82.416 
	13.625,82.416 13.625,49.542 22.137,49.542 "/>
<path fill="none" stroke="#FFFFFF" stroke-width="5" stroke-linecap="round" stroke-linejoin="round" d="M22.137,96.416H13.75
	c-6.627,0-12-5.372-12-12V47.542c0-6.627,5.373-12,12-12h8.387"/>
<rect x="38.398" y="42.292" fill="none" stroke="#FFFFFF" stroke-width="3" stroke-linecap="round" width="2.977" height="47.375"/>
<rect x="72.148" y="42.292" fill="none" stroke="#FFFFFF" stroke-width="3" stroke-linecap="round" width="2.977" height="47.375"/>
</svg>
