<?xml version="1.0" encoding="utf-8"?>
<!-- Generator: Adobe Illustrator 14.0.0, SVG Export Plug-In . SVG Version: 6.00 Build 43363)  -->
<!DOCTYPE svg PUBLIC "-//W3C//DTD SVG 1.1//EN" "http://www.w3.org/Graphics/SVG/1.1/DTD/svg11.dtd">
<svg version="1.1" id="Ebene_1" xmlns="http://www.w3.org/2000/svg" x="0px" y="0px"
     width="512px" height="512px" viewBox="0 0 512 512" enable-background="new 0 0 512 512" xml:space="preserve">
<polygon opacity="0.2" fill="#FFFFFF" points="120.353,471 120.353,288.447 50.107,302.188 23.279,350.965 42.129,407.92 "/>
<polyline fill="#FFFFFF" fill-opacity="0.2" points="181,47 98.053,51.731 64.096,100.207 79.396,164.059 135.219,192.118
	181,181.425 "/>
<path fill="none" stroke="#FFFFFF" stroke-width="22.3333" d="M35.158,334.063c-23.896,41.32,8.182,104.556,71.665,141.266
	c63.457,36.697,134.275,32.961,158.167-8.361c23.893-41.309-8.191-104.551-71.652-141.269
	C129.87,289.004,59.053,292.737,35.158,334.063z"/>
<path fill="#FFFFFF" fill-opacity="0.2" stroke="#FFFFFF" stroke-width="22.3333" d="M361.034,445.486
	c8.323,22.47,42.858,30.401,77.146,17.707c34.28-12.692,55.323-41.204,47.002-63.676c-8.32-22.474-42.857-30.395-77.138-17.71
	C373.758,394.511,352.716,423.012,361.034,445.486z"/>
<path fill="#FFFFFF" d="M94.454,367.909c-3.388,16.522,7.241,32.649,23.763,36.041c16.499,3.389,32.651-7.254,36.035-23.757
	c3.385-16.524-7.25-32.649-23.773-36.04C113.977,340.765,97.838,351.407,94.454,367.909z"/>
<path fill="#FFFFFF" d="M336.178,224.101c-4.771,16.168,4.476,33.146,20.645,37.905c16.167,4.77,33.136-4.464,37.903-20.632
	c4.771-16.167-4.47-33.144-20.638-37.917C357.92,198.694,340.948,207.933,336.178,224.101z"/>
<path fill="none" stroke="#FFFFFF" stroke-width="32" d="M159.773,45.332c6.125,1.807,11.852,4.322,17.105,7.42
	c4.331-5.963,9.427-11.35,15.271-16.041c50.467-40.376,138.68-13.982,197.042,58.947c58.363,72.935,64.771,164.792,14.313,205.169
	c-50.459,40.373-138.675,13.977-197.035-58.947c-14.306-17.884-25.484-36.894-33.474-56.018
	c-16.773,8.619-36.718,11.063-56.238,5.312c-40.269-11.877-63.28-54.153-51.403-94.428C77.227,56.47,119.505,33.45,159.773,45.332z"
	/>
</svg>
