<?xml version="1.0" encoding="utf-8"?>
<!-- Generator: Adobe Illustrator 14.0.0, SVG Export Plug-In . SVG Version: 6.00 Build 43363)  -->
<!DOCTYPE svg PUBLIC "-//W3C//DTD SVG 1.1//EN" "http://www.w3.org/Graphics/SVG/1.1/DTD/svg11.dtd">
<svg version="1.1" id="Ebene_1" xmlns="http://www.w3.org/2000/svg" xmlns:xlink="http://www.w3.org/1999/xlink" x="0px" y="0px"
	 width="52.25px" height="124.5px" viewBox="0 0 52.25 124.5" enable-background="new 0 0 52.25 124.5" xml:space="preserve">
<polygon fill="#FFFFFF" fill-opacity="0.15" points="26.068,110.75 26.068,34.125 5.25,25.5 4.042,36.875 5.875,46.375 3.5,54.875 
	6.416,63.406 2.896,71.396 5.195,80.582 4.615,95.773 11.901,105.131 "/>
<path fill="none" stroke="#FFFFFF" stroke-width="5" stroke-linecap="round" stroke-linejoin="round" d="M26.068,111.667
	c0,0,10.557-3.854,16.738-8.172c8.801-6.146,3.959-23.615,3.959-23.615"/>
<path fill="none" d="M26.068,32.333"/>
<path fill="none" stroke="#FFFFFF" stroke-width="5" stroke-linecap="round" stroke-linejoin="round" d="M26.068,72.375"/>
<path fill="none" stroke="#FFFFFF" stroke-width="5" stroke-linecap="round" stroke-linejoin="round" d="M26.068,89.875
	c0,0,11.236-2.686,19.119-8.542c8.188-6.083,1.564-18.934,1.564-18.934"/>
<path fill="none" stroke="#FFFFFF" stroke-width="5" stroke-linecap="round" stroke-linejoin="round" d="M26.068,54.875"/>
<path fill="none" stroke="#FFFFFF" stroke-width="5" stroke-linecap="round" stroke-linejoin="round" d="M26.068,72.375
	c0,0,11.236-2.686,19.119-8.542c8.188-6.083,1.44-18.831,1.44-18.831"/>
<path fill="none" stroke="#FFFFFF" stroke-width="5" stroke-linecap="round" stroke-linejoin="round" d="M26.068,54.875
	c0,0,11.236-2.686,19.119-8.542c8.188-6.083,1.979-22.063,1.979-22.063l-21.098,9.104"/>
<path fill="#FFFFFF" d="M49.125,32.038c1.182-0.562,2-1.767,2-3.163V13.833c0-1.933-1.566-3.5-3.5-3.5s-3.5,1.567-3.5,3.5V25.5
	l3.041-1.229L49.125,32.038"/>
<path fill="#FFFFFF" d="M49.125,32.038"/>
<path fill="none" stroke="#FFFFFF" stroke-width="5" stroke-linecap="round" stroke-linejoin="round" d="M26.068,89.875
	c0,0-11.236-2.686-19.119-8.542c-8.188-6.083-1.564-18.934-1.564-18.934"/>
<path fill="none" stroke="#FFFFFF" stroke-width="5" stroke-linecap="round" stroke-linejoin="round" d="M26.068,72.375
	c0,0-11.236-2.686-19.119-8.542c-8.188-6.083-1.44-18.831-1.44-18.831"/>
<path fill="none" stroke="#FFFFFF" stroke-width="5" stroke-linecap="round" stroke-linejoin="round" d="M26.068,54.875
	c0,0-11.236-2.686-19.119-8.542C-1.238,40.25,4.97,24.271,4.97,24.271l21.098,9.104"/>
<line fill="none" stroke="#FFFFFF" stroke-width="5" stroke-linecap="round" stroke-linejoin="round" x1="26.068" y1="111.667" x2="26.068" y2="32.333"/>
<line fill="none" stroke="#FFFFFF" stroke-width="7" stroke-linecap="round" stroke-linejoin="round" x1="26.068" y1="4.583" x2="26.068" y2="32.333"/>
<line fill="none" stroke="#FFFFFF" stroke-width="7" stroke-linecap="round" stroke-linejoin="round" x1="26.068" y1="111.667" x2="26.068" y2="120.521"/>
<path fill="none" stroke="#FFFFFF" stroke-width="5" stroke-linecap="round" stroke-linejoin="round" d="M26.068,111.667
	c0,0-10.557-3.854-16.739-8.172C0.529,97.349,5.372,79.88,5.372,79.88"/>
<path fill="#FFFFFF" d="M3.012,32.038c-1.183-0.562-2-1.767-2-3.163V13.833c0-1.933,1.567-3.5,3.5-3.5s3.5,1.567,3.5,3.5V25.5
	L4.97,24.271L3.012,32.038"/>
</svg>
