<?xml version="1.0" encoding="utf-8"?>
<!-- Generator: Adobe Illustrator 14.0.0, SVG Export Plug-In . SVG Version: 6.00 Build 43363)  -->
<!DOCTYPE svg PUBLIC "-//W3C//DTD SVG 1.1//EN" "http://www.w3.org/Graphics/SVG/1.1/DTD/svg11.dtd">
<svg version="1.1" id="Ebene_1" xmlns="http://www.w3.org/2000/svg" x="0px" y="0px"
     width="512px" height="512px" viewBox="0 0 512 512" enable-background="new 0 0 512 512" xml:space="preserve">
<path opacity="0.5" fill="#FFFFFF" enable-background="new    " d="M483.5,471.5h-455c-15.464,0-28-12.536-28-28s12.536-28,28-28
	h455c15.464,0,28,12.536,28,28S498.964,471.5,483.5,471.5L483.5,471.5z"/>
<path opacity="0.5" fill="#FFFFFF" enable-background="new    " d="M483.5,284.5h-455c-15.464,0-28-12.536-28-28s12.536-28,28-28
	h455c15.464,0,28,12.536,28,28S498.964,284.5,483.5,284.5L483.5,284.5z"/>
<path opacity="0.5" fill="#FFFFFF" enable-background="new    " d="M483.5,97.5h-455c-15.464,0-28-12.536-28-28s12.536-28,28-28h455
	c15.464,0,28,12.536,28,28S498.964,97.5,483.5,97.5L483.5,97.5z"/>
</svg>
