<?xml version="1.0" encoding="utf-8"?>
<!-- Generator: Adobe Illustrator 14.0.0, SVG Export Plug-In . SVG Version: 6.00 Build 43363)  -->
<!DOCTYPE svg PUBLIC "-//W3C//DTD SVG 1.1 Tiny//EN" "http://www.w3.org/Graphics/SVG/1.1/DTD/svg11-tiny.dtd">
<svg version="1.1" baseProfile="tiny" id="Ebene_1" xmlns="http://www.w3.org/2000/svg" xmlns:xlink="http://www.w3.org/1999/xlink"
	 x="0px" y="0px" width="512px" height="512px" viewBox="0 0 512 512" xml:space="preserve">
<polygon fill="#FFFFFF" fill-opacity="0.2" points="255.992,115.817 157.977,81.626 150.435,123.906 160.604,163.377 
	149.733,205.511 159.809,232.715 150.246,273.521 160.4,301.75 151.866,345.984 165.139,375.594 255.992,421.525 "/>
<path fill="none" d="M255.992,113.422"/>
<path fill="none" stroke="#FFFFFF" stroke-width="5" stroke-linecap="round" stroke-linejoin="round" d="M255.992,271.312"/>
<path fill="none" stroke="#FFFFFF" stroke-width="5" stroke-linecap="round" stroke-linejoin="round" d="M255.992,202.3"/>
<path fill="#FFFFFF" d="M363.555,112.26"/>
<path fill="#FFFFFF" d="M148.417,112.26"/>
<path fill="#FFFFFF" d="M371.846,261.531c-1.518-10.359-4.437-19.842-6.548-25.816c6.175-8.529,10.395-21.945,6.742-42.884
	c-1.883-10.792-5.342-20.679-7.797-26.843c6.209-9.421,8.465-21.873,8.658-34.455l0.016,0.041l0.416-83.224
	c0-7.611-7.644-13.792-17.08-13.792s-17.081,6.181-17.081,13.792v26.629l-67.18,23.431V16c0-8.836-7.164-16-16-16s-16,7.164-16,16
	v82.41L172.81,74.974V48.35c0-7.611-7.646-13.792-17.08-13.792c-9.418,0-17.063,6.181-17.063,13.792l0.407,81.159
	c0,0.293,0.003,0.586,0.004,0.879l0.006,1.185l0.003-0.009c0.192,12.414,2.392,24.702,8.418,34.071
	c-2.438,6.196-5.741,15.802-7.565,26.254c-3.698,21.193,0.672,34.674,6.969,43.187c-2.125,5.923-5.205,15.719-6.779,26.453
	c-2.993,20.404,0.891,33.621,7.009,42.183c-2.212,6.282-5.566,17.553-6.46,30.202c-1.929,27.298,8.164,47.533,29.187,58.519
	c17.371,9.078,36.715,18.945,51.988,26.68v63.31c0,16.401,15.314,29.744,34.138,29.744c18.834,0,34.157-13.343,34.157-29.744
	v-63.319c15.17-7.683,34.419-17.503,51.966-26.67c21.025-10.985,31.119-31.221,29.189-58.519
	c-0.895-12.654-4.25-23.927-6.463-30.209C370.955,295.144,374.834,281.93,371.846,261.531z M346.278,96.153
	c5.022,22.476,8.19,56.195-6.201,62.159c-29.084,12.047-59.94,22.684-76.085,28.061v-61.519L346.278,96.153z M165.717,96.153
	l82.275,28.7v61.52c-16.141-5.373-46.99-16.004-76.089-28.061c-0.716-0.297-1.377-0.681-2.008-1.11
	c-0.827-1.247-1.91-2.339-3.224-3.188C158.494,142.696,161.427,115.333,165.717,96.153z M166.119,180.083
	c33.9,13.895,69.427,25.748,81.873,29.804v46.182c-16.697-4.98-49.706-15.652-77.686-29.73
	C155.871,219.079,161.207,194.871,166.119,180.083z M165.792,249c32.695,15.672,68.948,26.589,82.2,30.344v46.047
	c-16.872-4.75-50.716-15.327-77.903-30.452C157.372,287.871,161.112,264.576,165.792,249z M180.209,372.64
	c-12.779-6.678-18.434-18.669-17.286-36.657c0.423-6.638,1.75-12.917,3.112-17.89c31.84,16.406,68.37,26.876,81.957,30.467v58.729
	C232.591,399.541,204.449,385.308,180.209,372.64z M267.815,482.422c0,3.499-5.057,7.412-11.824,7.412
	c-6.757,0-11.805-3.913-11.805-7.412v-52.337c5.982,2.308,10.137,2.596,11.693,2.606c0.019,0,0.04,0,0.06,0
	c0.011,0,0.026,0.001,0.038,0.001c0.005,0,0.009,0,0.014,0c0.005,0,0.01,0,0.015,0c0.011,0,0.026-0.001,0.037-0.001
	c0.021,0,0.042,0,0.061,0c1.555-0.011,5.712-0.299,11.712-2.615V482.422z M331.773,372.639
	c-24.562,12.831-52.511,26.968-67.781,34.649V348.56c13.591-3.593,50.133-14.066,81.978-30.479
	C350.192,333.38,354.05,360.999,331.773,372.639z M341.889,294.941c-27.184,15.123-61.025,25.698-77.896,30.448v-45.104
	c13.285-3.765,49.652-14.717,82.39-30.436C350.75,265.017,354.391,287.988,341.889,294.941z M341.677,227.281
	c-27.982,14.079-60.988,24.749-77.685,29.729v-47.124c12.412-4.046,47.771-15.846,81.591-29.691
	C350.566,194.896,356.38,219.885,341.677,227.281z"/>
</svg>
