<?xml version="1.0" encoding="utf-8"?>
<!-- Generator: Adobe Illustrator 14.0.0, SVG Export Plug-In . SVG Version: 6.00 Build 43363)  -->
<!DOCTYPE svg PUBLIC "-//W3C//DTD SVG 1.1//EN" "http://www.w3.org/Graphics/SVG/1.1/DTD/svg11.dtd">
<svg version="1.1" id="Ebene_1" xmlns="http://www.w3.org/2000/svg" xmlns:xlink="http://www.w3.org/1999/xlink" x="0px" y="0px"
	 width="512px" height="512px" viewBox="0 0 512 512" enable-background="new 0 0 512 512" xml:space="preserve">
<path fill="#FFFFFF" stroke="#333333" stroke-width="23" stroke-linecap="round" stroke-linejoin="round" d="M219.731,471
	c9.335,0,13.118-3.781,13.118-14.899c0-10.219,0-140.5,0-140.5s1.332-9.34,21.785-61.364
	c20.448-52.019,15.117-181.411-8.896-211.644H54.546c-24.012,30.233-29.348,159.625-8.895,211.644
	c20.458,52.024,21.791,61.364,21.791,61.364s0,130.281,0,140.5c0,11.116,3.776,14.899,13.117,14.899H219.731z"/>
<polygon fill="#4D4D4D" fill-opacity="0.2" points="39.702,233.819 67.441,315.601 67.441,466.437 150.141,466.437 150.141,115.041 
	33.103,115.041 "/>
<line fill="none" stroke="#333333" stroke-width="12" x1="33.103" y1="115.5" x2="267.28" y2="115.5"/>
<path fill="#333333" d="M207.975,25.242C204.985,11.028,183.634,0,157.703,0c-24.849,0-45.475,10.13-49.788,23.479
	c-4.902-1.655-10.603-2.621-16.727-2.621c-18.078,0-32.734,8.295-32.734,18.525l184.371,7.307
	C242.824,35.412,227.493,26.167,207.975,25.242z"/>
<g>
	<path fill="#FFFFFF" d="M374.424,283.604c0,55.53-45.02,100.565-100.553,100.565c-55.534,0-100.554-45.033-100.554-100.565
		c0-55.528,45.02-100.551,100.554-100.551C329.405,183.053,374.424,228.075,374.424,283.604z"/>
	<path fill="#333333" fill-opacity="0.2" d="M272.889,283.604c0,44.461-22.292,80.503-49.787,80.503
		c-27.495,0-49.785-36.042-49.785-80.503c0-44.454,22.291-80.505,49.785-80.505C250.597,203.1,272.889,239.146,272.889,283.604z"/>
	<g>
		<path fill="none" stroke="#FFFFFF" stroke-width="46" stroke-linecap="round" stroke-linejoin="round" d="M374.424,283.604
			c0,55.53-45.02,100.565-100.553,100.565c-55.534,0-100.554-45.033-100.554-100.565c0-55.528,45.02-100.551,100.554-100.551
			C329.405,183.053,374.424,228.075,374.424,283.604z"/>
		<path fill="none" stroke="#333333" stroke-width="23" stroke-linecap="round" stroke-linejoin="round" d="M374.424,283.604
			c0,55.53-45.02,100.565-100.553,100.565c-55.534,0-100.554-45.033-100.554-100.565c0-55.528,45.02-100.551,100.554-100.551
			C329.405,183.053,374.424,228.075,374.424,283.604z"/>
	</g>
	<path fill="#333333" d="M357.94,332.805l81.453,81.455c9.55,9.554,9.55,25.047,0,34.598c-4.78,4.775-11.036,7.158-17.303,7.158
		c-6.253,0-12.507-2.383-17.291-7.158L323.343,367.4L357.94,332.805"/>
	<animateMotion  fill="remove" restart="always" dur="1.2s" calcMode="paced" accumulate="none" additive="replace" repeatCount="indefinite">
		<mpath  xlink:href="#animation_x5F_path"></mpath>
	</animateMotion>
</g>
<path id="animation_x5F_path" fill="none" d="M0,41c-30.327,0-55-18.393-55-41c0-22.608,24.673-41,55-41S55-22.608,55,0
	C55,22.607,30.327,41,0,41L0,41z"/>
</svg>
