<?xml version="1.0" encoding="utf-8"?>
<!-- Generator: Adobe Illustrator 14.0.0, SVG Export Plug-In . SVG Version: 6.00 Build 43363)  -->
<!DOCTYPE svg PUBLIC "-//W3C//DTD SVG 1.1//EN" "http://www.w3.org/Graphics/SVG/1.1/DTD/svg11.dtd">
<svg version="1.1" id="Ebene_1" xmlns="http://www.w3.org/2000/svg" x="0px" y="0px"
     width="512px" height="512px" viewBox="0 0 512 512" enable-background="new 0 0 512 512" xml:space="preserve">
<polygon opacity="0.2" fill="#303030" points="44.709,248.218 74.151,335.029 74.151,495.153 161.947,495.153 161.947,122.122
	37.702,122.122 "/>
<path opacity="0.2" fill="#303030" d="M303,296.802c0,47.63-23.879,86.24-53.339,86.24c-29.453,0-53.334-38.61-53.334-86.24
	c0-47.626,23.881-86.241,53.334-86.241C279.121,210.561,303,249.175,303,296.802z"/>
<path fill="#303030" d="M477.984,435.5l-76.516-76.516c11.345-18.03,17.918-39.354,17.918-62.185
	c0-64.577-52.538-117.114-117.117-117.114c-64.575,0-117.108,52.537-117.108,117.114c0,64.576,52.533,117.112,117.108,117.112
	c22.982,0,44.437-6.659,62.544-18.143l76.451,76.451c5.072,5.071,11.716,7.605,18.362,7.605c6.642,0,13.287-2.534,18.355-7.605
	C488.127,462.081,488.127,445.646,477.984,435.5z M207.493,296.802c0-52.262,42.517-94.781,94.775-94.781
	c52.265,0,94.785,42.519,94.785,94.781c0,52.263-42.521,94.78-94.785,94.78C250.009,391.582,207.493,349.063,207.493,296.802z"/>
<path fill="#303030" d="M238.573,416.121v68.068c0,2.399-0.212,3.771-0.383,4.488c-0.476,0.078-1.232,0.153-2.375,0.153H88.075
	c-1.143,0-1.898-0.076-2.374-0.153c-0.173-0.716-0.386-2.089-0.386-4.488v-149.16c0-0.528-0.038-1.057-0.11-1.579
	c-0.269-1.871-2.67-13.925-23.79-67.642C49.092,234.46,46.498,177.84,50.485,130.108H273.41c0.884,10.579,1.44,21.594,1.645,32.673
	c7.245-1.473,14.701-2.36,22.314-2.63c-0.08-3.883-0.196-7.795-0.36-11.737c-1.045-25.029-5.555-85.867-24.832-110.145
	c-2.119-2.668-5.339-4.223-8.746-4.223h-13.846c-6.658-4.065-15.898-6.758-26.248-7.248C220.164,11.708,197.501,0,169.976,0
	c-26.38,0-48.275,10.753-52.856,24.924c-5.201-1.755-11.258-2.779-17.751-2.779c-14.322,0-26.618,4.904-31.939,11.902h-6.964
	c-3.407,0-6.626,1.555-8.745,4.223c-19.28,24.277-23.789,85.115-24.834,110.145c-2.14,51.29,2.999,98.23,13.745,125.565
	c17.648,44.894,21.59,59.096,22.354,62.226V484.19c0,22.297,13.646,26.978,25.093,26.978h147.738
	c11.446,0,25.093-4.681,25.093-26.978v-58.658C253.135,423.052,245.668,419.893,238.573,416.121z M66.432,56.38h191.03
	c6.423,11.518,11.422,33.135,14.44,58.729H51.99C55.011,89.514,60.01,67.897,66.432,56.38z"/>
</svg>
