<?xml version="1.0" encoding="utf-8"?>
<!-- Generator: Adobe Illustrator 14.0.0, SVG Export Plug-In . SVG Version: 6.00 Build 43363)  -->
<!DOCTYPE svg PUBLIC "-//W3C//DTD SVG 1.1//EN" "http://www.w3.org/Graphics/SVG/1.1/DTD/svg11.dtd">
<svg version="1.1" id="Ebene_1" xmlns="http://www.w3.org/2000/svg" xmlns:xlink="http://www.w3.org/1999/xlink" x="0px" y="0px"
	 width="512px" height="512px" viewBox="0 0 512 512" enable-background="new 0 0 512 512" xml:space="preserve">
<path fill-opacity="0.2" d="M217.312,280.395c0,35.263,21.593,65.569,52.249,78.41c18.645-13.256,31.668-43.365,31.668-78.41
	c0-35.037-13.02-65.143-31.657-78.402C238.911,214.827,217.312,245.132,217.312,280.395z"/>
<path d="M478.338,419.37l-76.226-76.226c11.47-18.188,18.118-39.705,18.118-62.752c0-65.041-52.917-117.955-117.96-117.955
	s-117.959,52.915-117.959,117.955c0,65.049,52.916,117.969,117.959,117.969c23.198,0,44.851-6.734,63.112-18.348l76.156,76.156
	c5.09,5.08,11.739,7.614,18.403,7.614c6.655,0,13.311-2.534,18.395-7.614C488.496,446.012,488.496,429.532,478.338,419.37z
	 M206.312,280.395c0-52.911,43.047-95.956,95.959-95.956s95.96,43.045,95.96,95.956c0,52.916-43.048,95.969-95.96,95.969
	C249.359,376.361,206.312,333.311,206.312,280.395z"/>
<rect x="73.692" y="442.75" fill-opacity="0.2" width="87.975" height="36.396"/>
<path d="M238.635,447.417v20.734c0,2.561-0.24,3.971-0.42,4.671c-0.479,0.087-1.28,0.178-2.533,0.178H87.644
	c-1.252,0-2.053-0.091-2.532-0.178c-0.181-0.7-0.42-2.11-0.42-4.671v-20.734H238.635z M49.97,111.355l1.102-11
	c3.011-26.631,8.14-49.209,14.775-61.05H257.48c6.639,11.841,11.769,34.419,14.777,61.05l1.104,11
	c1.214,13.802,1.871,28.392,1.905,42.937c7.138-1.527,14.492-2.46,22.011-2.748c-0.035-6.513-0.188-13.131-0.468-19.826
	c-1.045-25.062-5.559-85.975-24.844-110.255c-2.087-2.627-5.258-4.159-8.613-4.159L59.976,17.305c-3.354,0-6.526,1.532-8.614,4.159
	c-19.28,24.28-23.794,85.193-24.84,110.254c-2.143,51.369,3,98.373,13.759,125.735c17.727,45.087,21.657,59.294,22.412,62.402
	V468.15c0,22.189,13.569,26.849,24.952,26.849h148.038c11.383,0,24.954-4.658,24.954-26.849v-65.689
	c-7.686-2.627-15.044-5.964-22.002-9.928v43.717H84.692V318.702c0-0.521-0.037-1.04-0.109-1.556
	c-0.268-1.871-2.672-13.934-23.827-67.742C48.227,217.54,45.73,159.626,49.97,111.355"/>
</svg>
